<?xml version="1.0" encoding="utf-8"?>
<!-- Generator: Adobe Illustrator 25.2.0, SVG Export Plug-In . SVG Version: 6.00 Build 0)  -->
<svg version="1.1" id="Layer_1" xmlns="http://www.w3.org/2000/svg" xmlns:xlink="http://www.w3.org/1999/xlink" x="0px" y="0px"
	 viewBox="0 0 62.1 62.7" style="enable-background:new 0 0 62.1 62.7;" xml:space="preserve">
<style type="text/css">
	.st0{clip-path:url(#SVGID_1_);fill:url(#SVGID_2_);}
	.st1{fill:#FFFFFF;}
</style>
<g>
	<g>
		<defs>
			<path id="SVGID_4_" d="M5.6,31.2c0,5.4,1.7,10.5,4.6,14.7l-2.3,9.1l8.9-2.6c4.2,2.9,9.2,4.5,14.6,4.5c14.2,0,25.8-11.5,25.8-25.8
				c0-14.2-11.5-25.8-25.8-25.8C17.2,5.4,5.6,16.9,5.6,31.2"/>
		</defs>
		<clipPath id="SVGID_1_">
			<use xlink:href="#SVGID_4_"  style="overflow:visible;"/>
		</clipPath>
		
			<radialGradient id="SVGID_2_" cx="-673.2223" cy="319.4312" r="1" gradientTransform="matrix(25.772 0 0 -25.772 17381.6562 8263.5303)" gradientUnits="userSpaceOnUse">
			<stop  offset="0" style="stop-color:#00B63D"/>
			<stop  offset="0.2602" style="stop-color:#00B63D"/>
			<stop  offset="0.7602" style="stop-color:#00C95D"/>
			<stop  offset="1" style="stop-color:#00C95D"/>
		</radialGradient>
		<rect x="5.6" y="5.4" class="st0" width="51.5" height="51.5"/>
	</g>
	<g>
		<path class="st1" d="M31,0C13.9,0,0,13.9,0,31c0,5.8,1.6,11.2,4.4,15.9L0.4,62.7L16,58.2c4.5,2.5,9.6,3.9,15,3.9
			c17.1,0,31-13.9,31-31C62.1,13.9,48.2,0,31,0 M31.4,56.9c-5.4,0-10.5-1.7-14.6-4.5l-8.9,2.6l2.3-9.1c-2.9-4.2-4.6-9.2-4.6-14.7
			c0-14.2,11.5-25.8,25.8-25.8c14.2,0,25.8,11.5,25.8,25.8C57.2,45.4,45.6,56.9,31.4,56.9"/>
		<path class="st1" d="M23.2,28.6c0.4-0.4,0.7-0.8,1.1-1.2c0.6-0.7,1.5-1.4,1.6-2.4c0-1-0.3-1.9-0.6-2.8c-0.2-0.6-0.4-1.1-0.7-1.7
			c-0.4-1-0.9-2.5-1.5-3.1c-0.8-0.8-2.1-1-3.1-0.5c0,0-6.1,2.9-4.2,8.8c0,0,3.6,16.5,21.9,19.9c0,0,6.6,0.9,8.3-3
			c0.4-0.9,0.6-2.1,0.6-3c-0.1-0.9-0.7-1.5-1.4-1.9c-1-0.6-1.8-1.1-2.9-1.6c-1-0.5-2-1.2-3.1-0.9c-0.8,0.2-1.4,1-1.9,1.5
			c-0.7,0.8-1.4,1.5-2.2,2.2C34.9,38.9,25.7,35.5,23.2,28.6"/>
	</g>
</g>
</svg>
